<mxfile host="app.diagrams.net" modified="2022-05-09T02:34:40.396Z" agent="5.0 (Windows NT 10.0; Win64; x64) AppleWebKit/537.36 (KHTML, like Gecko) Chrome/101.0.4951.54 Safari/537.36" etag="638OtAFiY_6AWjiGsGWO" version="18.0.2" type="github">
  <diagram id="C5RBs43oDa-KdzZeNtuy" name="Page-1">
    <mxGraphModel dx="1254" dy="531" grid="0" gridSize="10" guides="1" tooltips="1" connect="1" arrows="1" fold="1" page="1" pageScale="1" pageWidth="827" pageHeight="1169" math="0" shadow="0">
      <root>
        <mxCell id="WIyWlLk6GJQsqaUBKTNV-0" />
        <mxCell id="WIyWlLk6GJQsqaUBKTNV-1" parent="WIyWlLk6GJQsqaUBKTNV-0" />
        <mxCell id="WIyWlLk6GJQsqaUBKTNV-3" value="url 입력" style="rounded=1;whiteSpace=wrap;html=1;fontSize=12;glass=0;strokeWidth=1;shadow=0;" parent="WIyWlLk6GJQsqaUBKTNV-1" vertex="1">
          <mxGeometry x="248" y="37" width="120" height="40" as="geometry" />
        </mxCell>
        <mxCell id="df3XHNiGgf87Rj3ea_Z9-24" value="동적이지 않은 &lt;br&gt;데이터&amp;nbsp;" style="rounded=0;whiteSpace=wrap;html=1;" vertex="1" parent="WIyWlLk6GJQsqaUBKTNV-1">
          <mxGeometry x="248" y="110" width="120" height="60" as="geometry" />
        </mxCell>
        <mxCell id="df3XHNiGgf87Rj3ea_Z9-25" value="" style="endArrow=classic;html=1;rounded=0;" edge="1" parent="WIyWlLk6GJQsqaUBKTNV-1">
          <mxGeometry width="50" height="50" relative="1" as="geometry">
            <mxPoint x="307" y="170" as="sourcePoint" />
            <mxPoint x="307" y="223" as="targetPoint" />
          </mxGeometry>
        </mxCell>
        <mxCell id="df3XHNiGgf87Rj3ea_Z9-26" value="" style="endArrow=classic;html=1;rounded=0;" edge="1" parent="WIyWlLk6GJQsqaUBKTNV-1">
          <mxGeometry width="50" height="50" relative="1" as="geometry">
            <mxPoint x="369" y="137.5" as="sourcePoint" />
            <mxPoint x="430" y="137.5" as="targetPoint" />
          </mxGeometry>
        </mxCell>
        <mxCell id="df3XHNiGgf87Rj3ea_Z9-28" value="No" style="text;html=1;strokeColor=none;fillColor=none;align=center;verticalAlign=middle;whiteSpace=wrap;rounded=0;" vertex="1" parent="WIyWlLk6GJQsqaUBKTNV-1">
          <mxGeometry x="368" y="102" width="60" height="30" as="geometry" />
        </mxCell>
        <mxCell id="df3XHNiGgf87Rj3ea_Z9-29" value="Yes" style="text;html=1;strokeColor=none;fillColor=none;align=center;verticalAlign=middle;whiteSpace=wrap;rounded=0;" vertex="1" parent="WIyWlLk6GJQsqaUBKTNV-1">
          <mxGeometry x="259" y="178" width="60" height="30" as="geometry" />
        </mxCell>
        <mxCell id="df3XHNiGgf87Rj3ea_Z9-30" value="뷰티풀솝 &lt;br&gt;사용" style="rhombus;whiteSpace=wrap;html=1;" vertex="1" parent="WIyWlLk6GJQsqaUBKTNV-1">
          <mxGeometry x="268" y="227" width="80" height="80" as="geometry" />
        </mxCell>
        <mxCell id="df3XHNiGgf87Rj3ea_Z9-35" value="" style="edgeStyle=orthogonalEdgeStyle;rounded=0;orthogonalLoop=1;jettySize=auto;html=1;" edge="1" parent="WIyWlLk6GJQsqaUBKTNV-1" source="df3XHNiGgf87Rj3ea_Z9-31">
          <mxGeometry relative="1" as="geometry">
            <mxPoint x="477" y="358" as="targetPoint" />
          </mxGeometry>
        </mxCell>
        <mxCell id="df3XHNiGgf87Rj3ea_Z9-31" value="셀레니움 &lt;br&gt;사용" style="rhombus;whiteSpace=wrap;html=1;" vertex="1" parent="WIyWlLk6GJQsqaUBKTNV-1">
          <mxGeometry x="437" y="98" width="80" height="80" as="geometry" />
        </mxCell>
        <mxCell id="df3XHNiGgf87Rj3ea_Z9-33" value="" style="endArrow=classic;html=1;rounded=0;" edge="1" parent="WIyWlLk6GJQsqaUBKTNV-1">
          <mxGeometry width="50" height="50" relative="1" as="geometry">
            <mxPoint x="308" y="77" as="sourcePoint" />
            <mxPoint x="308" y="109" as="targetPoint" />
          </mxGeometry>
        </mxCell>
        <mxCell id="df3XHNiGgf87Rj3ea_Z9-53" value="" style="edgeStyle=orthogonalEdgeStyle;rounded=0;orthogonalLoop=1;jettySize=auto;html=1;" edge="1" parent="WIyWlLk6GJQsqaUBKTNV-1" source="df3XHNiGgf87Rj3ea_Z9-36">
          <mxGeometry relative="1" as="geometry">
            <mxPoint x="590" y="398" as="targetPoint" />
          </mxGeometry>
        </mxCell>
        <mxCell id="df3XHNiGgf87Rj3ea_Z9-36" value="크롤링" style="rounded=0;whiteSpace=wrap;html=1;" vertex="1" parent="WIyWlLk6GJQsqaUBKTNV-1">
          <mxGeometry x="440.5" y="368" width="73" height="60" as="geometry" />
        </mxCell>
        <mxCell id="df3XHNiGgf87Rj3ea_Z9-38" value="" style="edgeStyle=orthogonalEdgeStyle;rounded=0;orthogonalLoop=1;jettySize=auto;html=1;" edge="1" parent="WIyWlLk6GJQsqaUBKTNV-1">
          <mxGeometry relative="1" as="geometry">
            <mxPoint x="308" y="312" as="sourcePoint" />
            <mxPoint x="308" y="365" as="targetPoint" />
          </mxGeometry>
        </mxCell>
        <mxCell id="df3XHNiGgf87Rj3ea_Z9-48" value="" style="edgeStyle=orthogonalEdgeStyle;rounded=0;orthogonalLoop=1;jettySize=auto;html=1;" edge="1" parent="WIyWlLk6GJQsqaUBKTNV-1" source="df3XHNiGgf87Rj3ea_Z9-39">
          <mxGeometry relative="1" as="geometry">
            <mxPoint x="308" y="559" as="targetPoint" />
          </mxGeometry>
        </mxCell>
        <mxCell id="df3XHNiGgf87Rj3ea_Z9-58" value="" style="edgeStyle=orthogonalEdgeStyle;rounded=0;orthogonalLoop=1;jettySize=auto;html=1;" edge="1" parent="WIyWlLk6GJQsqaUBKTNV-1" source="df3XHNiGgf87Rj3ea_Z9-39" target="df3XHNiGgf87Rj3ea_Z9-57">
          <mxGeometry relative="1" as="geometry" />
        </mxCell>
        <mxCell id="df3XHNiGgf87Rj3ea_Z9-39" value="크롤링" style="rounded=0;whiteSpace=wrap;html=1;" vertex="1" parent="WIyWlLk6GJQsqaUBKTNV-1">
          <mxGeometry x="271.5" y="368" width="73" height="60" as="geometry" />
        </mxCell>
        <mxCell id="df3XHNiGgf87Rj3ea_Z9-43" value="데이터프레임&amp;nbsp;&lt;br&gt;저장&amp;nbsp;" style="shape=dataStorage;whiteSpace=wrap;html=1;fixedSize=1;" vertex="1" parent="WIyWlLk6GJQsqaUBKTNV-1">
          <mxGeometry x="255" y="570" width="150" height="80" as="geometry" />
        </mxCell>
        <mxCell id="df3XHNiGgf87Rj3ea_Z9-50" value="" style="edgeStyle=orthogonalEdgeStyle;rounded=0;orthogonalLoop=1;jettySize=auto;html=1;" edge="1" parent="WIyWlLk6GJQsqaUBKTNV-1" target="df3XHNiGgf87Rj3ea_Z9-43">
          <mxGeometry relative="1" as="geometry">
            <mxPoint x="476.5" y="433" as="sourcePoint" />
            <mxPoint x="477" y="615" as="targetPoint" />
            <Array as="points">
              <mxPoint x="477" y="598" />
            </Array>
          </mxGeometry>
        </mxCell>
        <mxCell id="df3XHNiGgf87Rj3ea_Z9-51" value="Yes" style="text;html=1;strokeColor=none;fillColor=none;align=center;verticalAlign=middle;whiteSpace=wrap;rounded=0;" vertex="1" parent="WIyWlLk6GJQsqaUBKTNV-1">
          <mxGeometry x="470" y="480" width="60" height="30" as="geometry" />
        </mxCell>
        <mxCell id="df3XHNiGgf87Rj3ea_Z9-54" value="No" style="text;html=1;strokeColor=none;fillColor=none;align=center;verticalAlign=middle;whiteSpace=wrap;rounded=0;" vertex="1" parent="WIyWlLk6GJQsqaUBKTNV-1">
          <mxGeometry x="517" y="368" width="60" height="30" as="geometry" />
        </mxCell>
        <mxCell id="df3XHNiGgf87Rj3ea_Z9-55" value="None으로 &lt;br&gt;return" style="rounded=0;whiteSpace=wrap;html=1;" vertex="1" parent="WIyWlLk6GJQsqaUBKTNV-1">
          <mxGeometry x="600" y="363" width="73" height="60" as="geometry" />
        </mxCell>
        <mxCell id="df3XHNiGgf87Rj3ea_Z9-56" value="Yes" style="text;html=1;strokeColor=none;fillColor=none;align=center;verticalAlign=middle;whiteSpace=wrap;rounded=0;" vertex="1" parent="WIyWlLk6GJQsqaUBKTNV-1">
          <mxGeometry x="248" y="452" width="60" height="30" as="geometry" />
        </mxCell>
        <mxCell id="df3XHNiGgf87Rj3ea_Z9-57" value="No" style="text;html=1;strokeColor=none;fillColor=none;align=center;verticalAlign=middle;whiteSpace=wrap;rounded=0;" vertex="1" parent="WIyWlLk6GJQsqaUBKTNV-1">
          <mxGeometry x="127" y="383" width="60" height="30" as="geometry" />
        </mxCell>
        <mxCell id="df3XHNiGgf87Rj3ea_Z9-59" value="None으로 &lt;br&gt;return" style="rounded=0;whiteSpace=wrap;html=1;" vertex="1" parent="WIyWlLk6GJQsqaUBKTNV-1">
          <mxGeometry x="107" y="368" width="73" height="60" as="geometry" />
        </mxCell>
        <mxCell id="df3XHNiGgf87Rj3ea_Z9-60" value="No" style="text;html=1;strokeColor=none;fillColor=none;align=center;verticalAlign=middle;whiteSpace=wrap;rounded=0;" vertex="1" parent="WIyWlLk6GJQsqaUBKTNV-1">
          <mxGeometry x="202" y="363" width="60" height="30" as="geometry" />
        </mxCell>
        <mxCell id="df3XHNiGgf87Rj3ea_Z9-65" value="" style="edgeStyle=orthogonalEdgeStyle;rounded=0;orthogonalLoop=1;jettySize=auto;html=1;exitX=0.5;exitY=1;exitDx=0;exitDy=0;" edge="1" parent="WIyWlLk6GJQsqaUBKTNV-1" source="df3XHNiGgf87Rj3ea_Z9-59" target="df3XHNiGgf87Rj3ea_Z9-43">
          <mxGeometry relative="1" as="geometry">
            <mxPoint x="137" y="538" as="sourcePoint" />
            <Array as="points">
              <mxPoint x="137" y="428" />
              <mxPoint x="137" y="610" />
            </Array>
          </mxGeometry>
        </mxCell>
        <mxCell id="df3XHNiGgf87Rj3ea_Z9-66" value="" style="edgeStyle=orthogonalEdgeStyle;rounded=0;orthogonalLoop=1;jettySize=auto;html=1;entryX=0.903;entryY=0.48;entryDx=0;entryDy=0;entryPerimeter=0;" edge="1" parent="WIyWlLk6GJQsqaUBKTNV-1" target="df3XHNiGgf87Rj3ea_Z9-43">
          <mxGeometry relative="1" as="geometry">
            <mxPoint x="648.5" y="423" as="sourcePoint" />
            <mxPoint x="407" y="598" as="targetPoint" />
            <Array as="points">
              <mxPoint x="649" y="608" />
            </Array>
          </mxGeometry>
        </mxCell>
        <mxCell id="df3XHNiGgf87Rj3ea_Z9-67" value="Yes" style="text;html=1;strokeColor=none;fillColor=none;align=center;verticalAlign=middle;whiteSpace=wrap;rounded=0;" vertex="1" parent="WIyWlLk6GJQsqaUBKTNV-1">
          <mxGeometry x="85" y="486" width="60" height="30" as="geometry" />
        </mxCell>
        <mxCell id="df3XHNiGgf87Rj3ea_Z9-68" value="Yes" style="text;html=1;strokeColor=none;fillColor=none;align=center;verticalAlign=middle;whiteSpace=wrap;rounded=0;" vertex="1" parent="WIyWlLk6GJQsqaUBKTNV-1">
          <mxGeometry x="600" y="506" width="60" height="30" as="geometry" />
        </mxCell>
        <mxCell id="df3XHNiGgf87Rj3ea_Z9-69" value="종료" style="rounded=1;whiteSpace=wrap;html=1;fontSize=12;glass=0;strokeWidth=1;shadow=0;" vertex="1" parent="WIyWlLk6GJQsqaUBKTNV-1">
          <mxGeometry x="270" y="701" width="120" height="40" as="geometry" />
        </mxCell>
        <mxCell id="df3XHNiGgf87Rj3ea_Z9-70" value="" style="endArrow=classic;html=1;rounded=0;" edge="1" parent="WIyWlLk6GJQsqaUBKTNV-1">
          <mxGeometry width="50" height="50" relative="1" as="geometry">
            <mxPoint x="329.5" y="650" as="sourcePoint" />
            <mxPoint x="329.5" y="699" as="targetPoint" />
          </mxGeometry>
        </mxCell>
      </root>
    </mxGraphModel>
  </diagram>
</mxfile>
